<svg width="32" height="39" viewBox="0 0 32 39" fill="none" xmlns="http://www.w3.org/2000/svg">
<path d="M21.7397 3.75745C21.0122 3.75745 20.3262 4.04362 19.8182 4.54254C19.3102 4.04362 18.6241 3.75745 17.8967 3.75745C16.383 3.75745 15.1515 4.98897 15.1515 6.50268C15.1515 7.89077 15.9347 9.30487 17.4164 10.592C18.502 11.5351 19.575 12.0815 19.6201 12.1043C19.6824 12.1358 19.7503 12.1515 19.8182 12.1515C19.8861 12.1515 19.954 12.1357 20.0163 12.1043C20.0614 12.0815 21.1344 11.5351 22.22 10.592C23.7017 9.30487 24.4849 7.89077 24.4849 6.50268C24.4849 4.98897 23.2534 3.75745 21.7397 3.75745ZM19.8182 11.2117C19.0123 10.7559 16.0304 8.90655 16.0304 6.50268C16.0304 5.4736 16.8676 4.63635 17.8967 4.63635C18.523 4.63635 19.1045 4.94883 19.4521 5.47225C19.5335 5.59489 19.6709 5.6686 19.8182 5.6686C19.9654 5.6686 20.1028 5.59489 20.1843 5.47225C20.5319 4.94883 21.1133 4.63635 21.7397 4.63635C22.7688 4.63635 23.606 5.4736 23.606 6.50268C23.606 8.90655 20.624 10.7559 19.8182 11.2117Z" fill="#FFBB01"/>
<path d="M28.7424 3.75745H26.3939C26.1512 3.75745 25.9545 3.9542 25.9545 4.1969C25.9545 4.43959 26.1512 4.63635 26.3939 4.63635H28.7424C28.9851 4.63635 29.1819 4.43959 29.1819 4.1969C29.1819 3.9542 28.9851 3.75745 28.7424 3.75745Z" fill="#FFBB01"/>
<path d="M27.803 8.45447H26.3939C26.1512 8.45447 25.9545 8.65123 25.9545 8.89392C25.9545 9.13662 26.1512 9.33337 26.3939 9.33337H27.803C28.0457 9.33337 28.2424 9.13662 28.2424 8.89392C28.2424 8.65123 28.0457 8.45447 27.803 8.45447Z" fill="#FFBB01"/>
<path d="M28.7424 6.10608H26.3939C26.1512 6.10608 25.9545 6.30284 25.9545 6.54553C25.9545 6.78823 26.1512 6.98499 26.3939 6.98499H28.7424C28.9851 6.98499 29.1819 6.78823 29.1819 6.54553C29.1819 6.30284 28.9851 6.10608 28.7424 6.10608Z" fill="#FFBB01"/>
<path d="M10.894 10.7424C11.1367 10.7424 11.3335 10.5457 11.3335 10.303C11.3335 10.0603 11.1367 9.86353 10.894 9.86353H9.95483C9.71214 9.86353 9.51538 10.0603 9.51538 10.303C9.51538 10.5457 9.71214 10.7424 9.95483 10.7424H10.894Z" fill="#FFBB01"/>
<path d="M6.1969 10.7424H8.07577C8.31846 10.7424 8.51522 10.5457 8.51522 10.303C8.51522 10.0603 8.31846 9.86353 8.07577 9.86353H6.1969C5.9542 9.86353 5.75745 10.0603 5.75745 10.303C5.75745 10.5457 5.9542 10.7424 6.1969 10.7424Z" fill="#FFBB01"/>
<path d="M6.1969 13.0911H10.8939C11.1366 13.0911 11.3333 12.8943 11.3333 12.6516C11.3333 12.4089 11.1366 12.2122 10.8939 12.2122H6.1969C5.9542 12.2122 5.75745 12.4089 5.75745 12.6516C5.75745 12.8943 5.9542 13.0911 6.1969 13.0911Z" fill="#FFBB01"/>
<path d="M11.3333 15C11.3333 14.7573 11.1366 14.5605 10.8939 14.5605H6.1969C5.9542 14.5605 5.75745 14.7573 5.75745 15C5.75745 15.2427 5.9542 15.4395 6.1969 15.4395H10.8939C11.1366 15.4395 11.3333 15.2427 11.3333 15Z" fill="#FFBB01"/>
<path d="M9.95471 17.7878H17.4698C17.7125 17.7878 17.9092 17.5911 17.9092 17.3484C17.9092 17.1057 17.7125 16.9089 17.4698 16.9089H9.95471C9.71202 16.9089 9.51526 17.1057 9.51526 17.3484C9.51526 17.5911 9.71202 17.7878 9.95471 17.7878Z" fill="#FFBB01"/>
<path d="M6.1969 16.9089C5.9542 16.9089 5.75745 17.1057 5.75745 17.3484C5.75745 17.5911 5.9542 17.7878 6.1969 17.7878H8.07577C8.31846 17.7878 8.51522 17.5911 8.51522 17.3484C8.51522 17.1057 8.31846 16.9089 8.07577 16.9089H6.1969Z" fill="#FFBB01"/>
<path d="M27.803 10.8031H26.3939C26.1512 10.8031 25.9545 10.9999 25.9545 11.2426C25.9545 11.4852 26.1512 11.682 26.3939 11.682H27.803C28.0457 11.682 28.2424 11.4852 28.2424 11.2426C28.2424 10.9999 28.0457 10.8031 27.803 10.8031Z" fill="#FFBB01"/>
<path d="M30.1515 0H14.1818C13.1625 0 12.3333 0.829219 12.3333 1.84852V13.5909C12.3333 14.6102 13.1625 15.4394 14.1818 15.4394H24.3331L27.6298 18.7361C27.8042 18.9105 28.0356 19.0029 28.2718 19.0029C28.389 19.0029 28.5075 18.9801 28.6206 18.9332C28.9616 18.792 29.1819 18.4623 29.1819 18.0933V15.4395H30.1515C31.1708 15.4395 32 14.6102 32 13.5909V1.84852C32 0.829219 31.1708 0 30.1515 0ZM31.1211 13.5909C31.1211 14.1256 30.6862 14.5605 30.1515 14.5605H28.7424C28.4997 14.5605 28.303 14.7573 28.303 15V18.0933C28.303 18.1037 28.303 18.1135 28.2843 18.1212C28.2656 18.1289 28.2587 18.122 28.2513 18.1147L24.8259 14.6893C24.7435 14.6068 24.6317 14.5605 24.5152 14.5605H14.1818C13.6472 14.5605 13.2122 14.1256 13.2122 13.5909V1.84852C13.2122 1.31385 13.6472 0.878906 14.1818 0.878906H30.1514C30.6861 0.878906 31.121 1.31385 31.121 1.84852V13.5909H31.1211Z" fill="#FFBB01"/>
<path d="M21.5083 29.4192C21.2369 29.4192 21.0168 29.6367 21.0168 29.9049V33.0193C21.0168 33.6101 20.5302 34.0908 19.9321 34.0908H8.37288C8.24251 34.0908 8.11745 34.1419 8.02529 34.233L4.19352 38.0185C4.18533 38.0266 4.17746 38.0343 4.15662 38.0257C4.13571 38.0172 4.13571 38.0063 4.13571 37.9949V34.5765C4.13571 34.3083 3.91561 34.0908 3.64412 34.0908H2.06782C1.46972 34.0908 0.983179 33.6102 0.983179 33.0193V20.0428C0.983179 19.4519 1.46972 18.9713 2.06782 18.9713H9.94924C10.2207 18.9713 10.4408 18.7538 10.4408 18.4856C10.4408 18.2174 10.2207 18 9.94924 18H2.06782C0.927596 18 0 18.9164 0 20.0428V33.0193C0 34.1457 0.927596 35.0621 2.06782 35.0621H3.15246V37.9948C3.15246 38.4026 3.39891 38.767 3.78032 38.923C3.90689 38.9748 4.03936 39 4.17058 39C4.43473 39 4.69363 38.8979 4.88869 38.7053L8.57653 35.0621H19.9322C21.0724 35.0621 22 34.1457 22 33.0193V29.9049C21.9999 29.6367 21.7798 29.4192 21.5083 29.4192Z" fill="#FFBB01"/>
</svg>
