<svg width="34" height="36" viewBox="0 0 34 36" fill="none" xmlns="http://www.w3.org/2000/svg">
<path d="M17.97 22.5575C18.5881 22.5094 19.1516 22.1941 19.5174 21.6912L25.0771 14.0051C25.2475 13.7694 25.222 13.444 25.0153 13.2374C24.8087 13.0313 24.4833 13.0058 24.2476 13.1756L16.5603 18.7371C16.0592 19.1016 15.7439 19.6652 15.6958 20.2833C15.6477 20.9014 15.8715 21.5065 16.3091 21.9441C16.7076 22.3432 17.245 22.564 17.8037 22.564C17.8589 22.564 17.9142 22.5617 17.97 22.5575ZM16.8798 20.3759C16.9006 20.1046 17.0395 19.8569 17.258 19.6978L21.9472 16.3055L18.5561 20.9935C18.3957 21.2138 18.1481 21.3521 17.8768 21.3735C17.6066 21.3913 17.3412 21.2975 17.1482 21.1045C16.957 20.9127 16.8584 20.6467 16.8798 20.3759Z" fill="#FFBB01"/>
<path d="M31.2709 11.6169C31.265 11.6045 31.265 11.5914 31.2585 11.5789C31.2513 11.5671 31.24 11.5605 31.2323 11.5493C30.632 10.5196 29.9218 9.56183 29.1155 8.69371L30.3909 7.41884L31.2305 8.25846L33.7494 5.739L31.2305 3.22013L28.7111 5.739L29.5513 6.57922L28.2758 7.85409C27.4077 7.04772 26.4505 6.33695 25.4203 5.73663C25.409 5.72891 25.4025 5.71762 25.3906 5.7105C25.3781 5.70337 25.3651 5.70397 25.3526 5.69744C23.516 4.6393 21.4526 3.93447 19.2526 3.67617V2.96896H20.1433C20.9621 2.96896 21.6277 2.30332 21.6277 1.48448C21.6277 0.665641 20.9615 0 20.1427 0H14.7985C13.9797 0 13.3141 0.665641 13.3141 1.48448C13.3141 2.30332 13.9797 2.96896 14.7985 2.96896H15.6892V3.65538C15.0479 3.72367 14.4078 3.82818 13.7748 3.97306C13.4554 4.0461 13.2553 4.36497 13.3289 4.68443C13.4019 5.00389 13.7208 5.20459 14.0403 5.13036C14.5865 5.00507 15.1382 4.91066 15.691 4.84712L16.3281 4.79784C16.5229 4.783 16.7022 4.77231 16.8768 4.76399V5.93792C16.8768 6.26629 17.1422 6.53171 17.4706 6.53171C17.799 6.53171 18.0644 6.26629 18.0644 5.93792V4.76815C20.2976 4.87088 22.402 5.47061 24.2731 6.45749L23.6876 7.47109C23.5237 7.75552 23.6211 8.11833 23.9049 8.28221C23.9982 8.33625 24.1003 8.36178 24.2012 8.36178C24.4067 8.36178 24.6062 8.25549 24.716 8.06488L25.2997 7.05366C27.1577 8.23233 28.736 9.81063 29.9147 11.6686L28.9035 12.2523C28.6202 12.4162 28.5228 12.779 28.6873 13.0634C28.7978 13.254 28.9967 13.3603 29.2021 13.3603C29.3031 13.3603 29.4052 13.3348 29.4984 13.2808L30.5121 12.6953C31.5126 14.593 32.1141 16.7319 32.2038 19.0008H31.031C30.7027 19.0008 30.4372 19.2662 30.4372 19.5945C30.4372 19.9229 30.7027 20.1883 31.031 20.1883H32.2038C32.1141 22.4572 31.5126 24.5961 30.5121 26.4938L29.4984 25.9083C29.2146 25.7444 28.8512 25.8406 28.6873 26.1257C28.5234 26.4101 28.6208 26.7729 28.9047 26.9368L29.9159 27.5205C28.7372 29.3785 27.1589 30.9568 25.3009 32.1354L24.7172 31.1242C24.5528 30.8392 24.1888 30.7424 23.9061 30.9069C23.6217 31.0708 23.5243 31.4342 23.6888 31.718L24.2743 32.7316C22.4032 33.7185 20.2988 34.3182 18.0656 34.4209V33.2524C18.0656 32.924 17.8002 32.6586 17.4718 32.6586C17.1434 32.6586 16.878 32.924 16.878 33.2524V34.4257C15.9297 34.393 14.9785 34.2743 14.042 34.0593C13.7226 33.9827 13.4037 34.1858 13.3307 34.5053C13.257 34.8247 13.4572 35.1436 13.7766 35.2166C14.9618 35.4898 16.1726 35.6275 17.3738 35.6275C17.4029 35.6275 17.4308 35.6257 17.4599 35.6251C17.4641 35.6251 17.467 35.6275 17.4706 35.6275C17.4753 35.6275 17.4795 35.6246 17.4843 35.6246C20.3386 35.605 23.0166 34.8342 25.3336 33.5029C25.352 33.4946 25.3716 33.4905 25.3894 33.4798C25.4013 33.4727 25.4078 33.4614 25.4191 33.4537C27.8174 32.0559 29.8215 30.0542 31.2222 27.6576C31.2335 27.6416 31.2478 27.6291 31.2579 27.6113C31.265 27.5989 31.2644 27.5858 31.2703 27.5733C32.6265 25.2219 33.4062 22.4988 33.4062 19.5951C33.4062 16.6915 32.6265 13.9684 31.2709 11.6169ZM31.2299 4.89938L32.0696 5.739L31.2299 6.57922L30.3897 5.739L31.2299 4.89938ZM16.8768 3.57522V1.78138H14.7985C14.6352 1.78138 14.5016 1.64777 14.5016 1.48448C14.5016 1.32119 14.6352 1.18758 14.7985 1.18758H20.1427C20.306 1.18758 20.4396 1.32119 20.4396 1.48448C20.4396 1.64777 20.306 1.78138 20.1427 1.78138H18.0644V3.57522C17.8577 3.56691 17.6606 3.56275 17.4706 3.56275C17.454 3.56275 17.435 3.56394 17.4183 3.56394C17.4035 3.56394 17.3887 3.56275 17.3738 3.56275C17.2764 3.56275 17.179 3.56928 17.0817 3.57107C17.0128 3.57285 16.9481 3.57225 16.8768 3.57522Z" fill="#FFBB01"/>
<path d="M12.1266 8.3132H9.15762C8.82925 8.3132 8.56383 8.57863 8.56383 8.90699C8.56383 9.23536 8.82925 9.50079 9.15762 9.50079H12.1266C12.4549 9.50079 12.7204 9.23536 12.7204 8.90699C12.7204 8.57863 12.4549 8.3132 12.1266 8.3132Z" fill="#FFBB01"/>
<path d="M12.1264 12.4696H6.18852C5.86015 12.4696 5.59473 12.735 5.59473 13.0634C5.59473 13.3918 5.86015 13.6572 6.18852 13.6572H12.1264C12.4548 13.6572 12.7202 13.3918 12.7202 13.0634C12.7202 12.735 12.4548 12.4696 12.1264 12.4696Z" fill="#FFBB01"/>
<path d="M12.1264 16.626H3.21955C2.89119 16.626 2.62576 16.8914 2.62576 17.2198C2.62576 17.5482 2.89119 17.8136 3.21955 17.8136H12.1264C12.4548 17.8136 12.7202 17.5482 12.7202 17.2198C12.7202 16.8914 12.4548 16.626 12.1264 16.626Z" fill="#FFBB01"/>
<path d="M12.1265 20.7828H0.84441C0.516043 20.7828 0.250618 21.0483 0.250618 21.3766C0.250618 21.705 0.516043 21.9704 0.84441 21.9704H12.1265C12.4548 21.9704 12.7203 21.705 12.7203 21.3766C12.7203 21.0483 12.4548 20.7828 12.1265 20.7828Z" fill="#FFBB01"/>
<path d="M12.1264 24.9392H4.40706C4.0787 24.9392 3.81327 25.2047 3.81327 25.533C3.81327 25.8614 4.0787 26.1268 4.40706 26.1268H12.1264C12.4547 26.1268 12.7202 25.8614 12.7202 25.533C12.7202 25.2047 12.4547 24.9392 12.1264 24.9392Z" fill="#FFBB01"/>
<path d="M12.1265 29.0958H7.96991C7.64155 29.0958 7.37612 29.3612 7.37612 29.6896C7.37612 30.0179 7.64155 30.2833 7.96991 30.2833H12.1265C12.4548 30.2833 12.7202 30.0179 12.7202 29.6896C12.7202 29.3612 12.4548 29.0958 12.1265 29.0958Z" fill="#FFBB01"/>
</svg>
